<svg width="1128" height="1128" viewBox="0 0 1128 1128" fill="none" xmlns="http://www.w3.org/2000/svg">
<g clip-path="url(#clip0_309_138)">
<path d="M-317 1389.67H1389.67V-317H-317V1389.67Z" fill="#A3D7BC"/>
<g opacity="0.199997">
<g opacity="0.199997">
<path opacity="0.199997" d="M816.438 1025.04C816.438 1050.27 691.257 1070.72 536.838 1070.72C382.42 1070.72 257.238 1050.27 257.238 1025.04C257.238 999.813 376.034 1006.14 530.453 1006.14C684.872 1006.14 816.438 999.813 816.438 1025.04Z" fill="#414142"/>
</g>
</g>
<path d="M844.284 236.085C824.016 151.33 731.755 126.481 658.459 140.959C622.817 148.001 589.984 176.731 551.38 179.474C503.989 182.841 468.897 157.622 425.409 146.662C193.641 88.2473 180.725 380.45 262.669 529.199C310.217 615.511 318.66 674.907 326.68 776.497C330.531 825.278 303.144 1020.82 378.48 1032.35C437.66 1041.4 448.105 911.083 456.771 866.749C472.153 788.049 475.02 724.803 522.151 661.234C529.467 651.365 544.151 651.415 551.419 661.319C607.844 738.211 604.403 822.813 627.211 915.786C647.765 999.569 708.32 1102.91 742.379 957.582C768.483 846.203 725.732 713.234 766.14 601.901C817.58 460.169 882.664 396.585 844.284 236.085Z" fill="white"/>
<path d="M443.728 304.67C443.728 329.46 423.63 349.558 398.841 349.558C374.05 349.558 353.953 329.46 353.953 304.67C353.953 279.879 374.05 259.783 398.841 259.783C423.63 259.783 443.728 279.879 443.728 304.67Z" fill="#414142"/>
<path d="M416.141 279.176C416.141 286.048 410.57 291.62 403.697 291.62C396.825 291.62 391.254 286.048 391.254 279.176C391.254 272.304 396.825 266.732 403.697 266.732C410.57 266.732 416.141 272.304 416.141 279.176Z" fill="#F1F1F2"/>
<path d="M398.844 297.993C398.844 300.171 397.077 301.938 394.898 301.938C392.72 301.938 390.953 300.171 390.953 297.993C390.953 295.814 392.72 294.047 394.898 294.047C397.077 294.047 398.844 295.814 398.844 297.993Z" fill="#F1F1F2"/>
<path d="M417.353 297.993C417.353 301.681 414.364 304.67 410.676 304.67C406.989 304.67 404 301.681 404 297.993C404 294.305 406.989 291.315 410.676 291.315C414.364 291.315 417.353 294.305 417.353 297.993Z" fill="#F1F1F2"/>
<path d="M742.99 304.67C742.99 329.46 722.892 349.558 698.103 349.558C673.312 349.558 653.215 329.46 653.215 304.67C653.215 279.879 673.312 259.783 698.103 259.783C722.892 259.783 742.99 279.879 742.99 304.67Z" fill="#414142"/>
<path d="M715.402 279.176C715.402 286.048 709.832 291.62 702.958 291.62C696.086 291.62 690.516 286.048 690.516 279.176C690.516 272.304 696.086 266.732 702.958 266.732C709.832 266.732 715.402 272.304 715.402 279.176Z" fill="#F1F1F2"/>
<path d="M698.102 297.993C698.102 300.171 696.335 301.938 694.156 301.938C691.978 301.938 690.211 300.171 690.211 297.993C690.211 295.814 691.978 294.047 694.156 294.047C696.335 294.047 698.102 295.814 698.102 297.993Z" fill="#F1F1F2"/>
<path d="M716.616 297.993C716.616 301.681 713.627 304.67 709.939 304.67C706.252 304.67 703.262 301.681 703.262 297.993C703.262 294.305 706.252 291.315 709.939 291.315C713.627 291.315 716.616 294.305 716.616 297.993Z" fill="#F1F1F2"/>
<path d="M617.703 463.579C614.237 463.579 611.348 466.234 611.068 469.687C607.949 508.186 575.621 538.559 536.333 538.559C497.045 538.559 464.717 508.186 461.6 469.687C461.32 466.234 458.429 463.579 454.964 463.579C451.091 463.579 447.996 466.873 448.307 470.733C451.96 516.097 490.045 551.893 536.333 551.893C582.623 551.893 620.707 516.097 624.36 470.733C624.672 466.873 621.576 463.579 617.703 463.579Z" fill="#414142"/>
<path d="M410.679 410.272C410.679 427.21 382.992 440.939 348.839 440.939C314.685 440.939 287 427.21 287 410.272C287 393.336 314.685 379.606 348.839 379.606C382.992 379.606 410.679 393.336 410.679 410.272Z" fill="#F9D0B9"/>
<path d="M786.679 410.272C786.679 427.21 758.992 440.939 724.839 440.939C690.685 440.939 663 427.21 663 410.272C663 393.336 690.685 379.606 724.839 379.606C758.992 379.606 786.679 393.336 786.679 410.272Z" fill="#F9D0B9"/>
<path d="M378.556 149.828C373.457 149.598 368.292 149.996 363.228 150.55C351.027 151.885 338.965 154.76 327.509 159.173C312.077 165.12 297.795 173.984 285.961 185.572C279.055 192.334 273.02 199.966 267.949 208.194C261.751 218.253 257.235 229.162 253.188 240.234C250.305 248.124 247.316 256.418 246.489 264.84C246.224 267.536 245.825 272.471 248.927 273.857C251.733 275.111 255.36 272.773 257.588 271.292C261.993 268.366 265.865 264.616 269.496 260.797C273.833 256.233 277.857 251.364 281.587 246.293C285.567 240.882 288.743 235.013 292.524 229.484C298.423 220.858 305.681 213.17 313.4 206.158C321.889 198.446 331.096 191.492 340.839 185.438C349.828 179.854 359.357 174.941 369.42 171.597C373.791 170.145 378.281 168.993 382.852 168.397C388.192 167.701 393.559 167.692 398.844 166.52C402.335 165.745 411.836 163.145 408.804 157.645C407.621 155.498 405.217 154.105 403.076 153.096C399.727 151.517 396.061 150.616 392.411 150.086C387.829 149.421 383.16 149.37 378.556 149.828Z" fill="#E7E8E9"/>
<path d="M649.032 198.563C620.492 199.858 574.548 189.455 550.783 183.448C540.52 181.139 534.264 179.487 534.264 179.487C515.751 178.522 494.113 170.934 494.113 170.934C501.356 176.884 510.529 181.943 520.913 186.236C564.192 203.612 619.667 213.272 649.032 198.563Z" fill="#E7E8E9"/>
<path d="M256.776 288.725C250.522 288.016 244.836 294.174 241.67 299.717C238.03 306.094 235.796 330.226 245.164 333.538C258.901 338.396 272.165 290.469 256.776 288.725Z" fill="#E7E8E9"/>
<path d="M732.332 798.272C734.497 823.764 735.279 849.444 735.025 875.02C734.657 912.234 734.881 957.411 716.617 991.052C710.589 1002.16 703.685 1009.98 690.612 1004.16C684.384 1001.39 668.825 991.962 672.992 984.015C677.951 974.558 687.316 986.092 694.36 983.548C707.991 978.628 713.38 948.58 715.127 936.122C717.408 919.856 717.376 903.111 718.055 886.727C718.959 864.934 719.569 843.022 722.036 821.334C722.331 818.744 725.449 789.595 732.332 798.272Z" fill="#E7E8E9"/>
</g>
<defs>
<clipPath id="clip0_309_138">
<rect width="1128" height="1128" fill="white"/>
</clipPath>
</defs>
</svg>
